PathFileType	4	(X/Y/Z)	C:\Users\WrightLab\Desktop\Jo\P5V27.trc
DataRate	CameraRate	NumFrames	NumMarkers	Units	OrigDataRate	OrigDataStartFrame	OrigNumFrames
100.00	100.00	       22	19	mm	100.00	615	       819
Frame#	Time	Headset_Front			Headset_Back			Headset_Left			Headset_Right			Left_Shoulder			Right_Shoulder			Sternum			C7			Left Elbow			Right Elbow			Left Wrist			Right Wrist			Left ASIS			Right ASIS			S2			Left Knee			Right Knee			Left Ankle			Right Ankle			
		X1	Y1	Z1	X2	Y2	Z2	X3	Y3	Z3	X4	Y4	Z4	X5	Y5	Z5	X6	Y6	Z6	X7	Y7	Z7	X8	Y8	Z8	X9	Y9	Z9	X10	Y10	Z10	X11	Y11	Z11	X12	Y12	Z12	X13	Y13	Z13	X14	Y14	Z14	X15	Y15	Z15	X16	Y16	Z16	X17	Y17	Z17	X18	Y18	Z18	X19	Y19	Z19	

615	6.140	-173.44777	1572.44397	-79.67117							-404.46811	1553.51709	-103.85674	-38.67599	1526.41528	-276.26535	-332.73679	1444.02478	-25.66807	-217.52269	1309.47961	-189.01260	-268.74292	1528.33887	-372.33115	76.85688	1246.27710	-297.14078	-601.85693	1230.22827	-170.72758	56.20141	1012.92725	-204.23923	-684.57190	1115.61609	37.57504	-48.86092	944.79138	-200.15469	-330.14059	936.07483	-144.99556	-187.04205	995.01233	-434.37012	-0.47841	505.00870	-201.25824	-388.16660	496.53354	-190.10681	-43.60817	91.74543	-378.10324	-378.60904	95.14353	-250.25977	
616	6.150	-170.91647	1573.08325	-82.11357							-402.57187	1554.40002	-104.73708	-36.34527	1526.41162	-278.23709				-215.22498	1309.90320	-189.83694	-266.59866	1528.28662	-374.11700	78.81236	1245.33667	-300.00842	-599.54944	1229.56287	-172.45578	58.64907	1012.53992	-205.04117	-681.42889	1113.02234	34.60433	-47.59788	944.61200	-202.54686	-328.26538	936.28381	-147.74834	-185.23419	995.15869	-436.18469	1.25561	505.05801	-201.94078	-386.51462	496.30960	-190.82947	-43.74091	91.84775	-378.13110	-378.53952	95.18417	-250.19463	
617	6.160	-168.48253	1574.09741	-83.95540							-399.60370	1554.47681	-105.97065	-34.61629	1526.30237	-279.53909				-213.92554	1309.98828	-192.19861	-264.47952	1528.54614	-375.73572	80.11119	1245.78491	-301.37018	-597.26453	1228.78271	-174.85411	57.97589	1013.43933	-207.80711	-678.73132	1110.88367	32.56008	-45.50774	944.41602	-202.88583	-327.06500	936.57007	-148.38947	-183.52412	994.50378	-437.20621	3.58753	505.19781	-202.82149	-385.34219	496.95618	-191.58875	-43.30264	91.31015	-377.90524	-378.24930	95.57249	-250.02963	
618	6.170	-166.49379	1575.18652	-86.00600							-397.70612	1555.91040	-107.93556	-32.21823	1525.73157	-281.44543	-325.28641	1447.13904	-29.50552	-211.94897	1310.11792	-192.83333	-262.46027	1528.54443	-377.44247	83.34926	1245.64343	-303.50958	-595.43579	1228.88440	-177.75763	59.40021	1013.55237	-208.25264	-676.03021	1109.23840	29.08280	-44.40002	944.54205	-204.11021	-325.15329	936.34497	-150.25418	-182.09300	994.55042	-438.86966	5.87397	505.72205	-203.85777	-384.35419	496.67258	-191.94382	-43.42197	91.01486	-378.31839	-378.17963	95.60620	-249.97408	
619	6.180	-163.38676	1575.66504	-88.06264							-394.57559	1556.24609	-109.25636	-29.61479	1525.64673	-283.74359				-209.87596	1310.09851	-194.88658	-260.24969	1528.38647	-378.85889	84.69231	1244.51892	-305.98566	-593.27502	1228.42456	-180.70239	60.19635	1013.59351	-209.49174	-672.76971	1107.04065	27.63366	-42.33066	944.38025	-205.12166	-323.41153	936.33826	-151.53140	-180.15712	994.60303	-440.20416	7.92686	506.20825	-204.39914	-382.71738	496.14728	-192.89418	-43.09026	90.83958	-378.09781	-378.18274	95.95547	-250.28415	
620	6.190	-160.83009	1576.76904	-91.13545							-396.67285	1557.30566	-113.36525	-27.43658	1525.64832	-285.18805				-207.64738	1310.70972	-196.80687	-258.17661	1528.46411	-380.90756	86.98888	1244.54626	-306.38126	-590.92889	1228.25366	-182.63750	61.83041	1013.33087	-210.91632	-669.59735	1105.43298	24.75621	-41.05632	943.85120	-206.13942	-322.00668	936.19092	-154.20761	-178.27518	994.09198	-441.60364	9.95886	506.83267	-205.54080	-381.21011	496.28018	-193.44299	-42.89878	90.63343	-378.03873	-378.12823	95.99010	-250.24199	
621	6.200	-158.18001	1577.31470	-93.84196							-389.74811	1557.29871	-112.28948	-25.33137	1524.88599	-286.96506				-206.58244	1310.29626	-197.97789	-255.84596	1528.29443	-383.28818	89.35506	1243.91187	-307.72870	-588.15747	1227.14795	-185.02576	63.11111	1013.70569	-211.22057	-665.77936	1103.59717	22.00502	-39.53854	943.89032	-207.38847	-320.47968	936.19226	-155.79662	-176.69334	993.80475	-443.32211	10.75279	506.60379	-206.07195	-380.03027	496.01334	-194.00282	-43.41343	89.87148	-377.98160	-378.02567	96.03685	-250.17192	
622	6.210	-155.94232	1577.36816	-96.26024							-387.82941	1558.23584	-115.33761	-22.55381	1524.76294	-288.85837	-315.03275	1450.55835	-35.55802	-204.40051	1310.49634	-201.14777	-253.48749	1528.35742	-385.22150	90.90903	1243.23669	-310.62036	-585.44025	1226.20044	-186.30211	63.74998	1013.63788	-215.54825	-662.87592	1102.53418	18.89853	-38.02019	943.07190	-208.50252	-318.81781	936.29993	-158.01007	-174.88112	993.57629	-444.65497	13.14414	506.52664	-207.63062	-378.86279	496.96396	-194.12727	-42.61430	90.80696	-377.27795	-377.73267	95.84016	-250.02744	
623	6.220	-154.27690	1577.83643	-97.43725							-385.10852	1558.82605	-116.76749	-20.96288	1524.61963	-290.47382	-352.44879	1415.67798	-203.46706	-202.19676	1310.70093	-203.20152	-251.18372	1528.20825	-386.90308	94.16476	1242.98254	-312.16336	-582.83752	1226.49365	-189.79962	64.90097	1014.46692	-214.24515	-660.20551	1100.44165	16.24683	-37.30423	943.14124	-209.75044	-317.48013	936.07092	-159.12263	-172.70520	993.24854	-446.27527	15.22751	506.82443	-207.86232	-377.19778	496.97388	-195.22304	-42.45690	90.65038	-377.41107	-377.66711	95.87436	-249.99258	
624	6.230	-151.05946	1578.56287	-99.64686							-383.12070	1559.19458	-118.82051	-17.99462	1523.73743	-292.12296	-350.51572	1416.28955	-205.47910	-200.51976	1310.08545	-204.45961	-248.78003	1528.51563	-389.25360	97.02263	1244.90588	-316.61945	-580.39990	1226.38184	-191.52672	65.73319	1014.53192	-214.85756	-656.25000	1098.85828	14.88640	-35.83789	942.59393	-211.58853	-316.46249	936.53857	-161.50856	-171.17735	992.82349	-447.57120	16.63314	507.52722	-208.74925	-375.48065	496.25284	-195.08672	-42.44727	90.54471	-377.47327	-377.48044	96.06382	-249.98708	
625	6.240	-148.36496	1579.54236	-102.05541							-380.83322	1560.59070	-121.80061	-14.88241	1525.13623	-294.23499	-348.75375	1417.25110	-207.64554	-198.96812	1310.19873	-206.86371	-246.49496	1528.37964	-391.38278	98.41784	1242.62439	-317.53763	-577.42310	1226.07373	-193.56534	67.11517	1014.79517	-215.48856	-652.59583	1097.83362	11.69400	-35.00536	942.15485	-212.57198	-315.06827	936.77649	-163.47028	-169.06943	992.81458	-449.37820	18.60790	507.38046	-210.23140	-374.35178	496.29965	-196.25121	-42.50378	90.08704	-377.83069	-377.41397	96.09287	-249.92549	
626	6.250	-146.63593	1579.31201	-103.86743							-378.55127	1560.99426	-123.85207	-12.80968	1524.44275	-295.01837	-347.15988	1417.88696	-211.20110	-196.47937	1310.48901	-208.14395	-244.00388	1528.40759	-393.73358	101.37887	1242.85486	-318.66623	-574.59149	1225.74670	-195.30261	66.96364	1014.76202	-219.26547	-649.05859	1096.51721	9.45179	-33.91385	941.99799	-213.74408	-313.90686	936.73450	-165.87149	-167.32431	992.41931	-451.65503	20.82419	507.91074	-210.61920	-373.44928	497.21075	-197.26927	-42.39471	90.03792	-378.23489	-376.97278	96.57945	-250.55472	
627	6.260	-144.96803	1579.78186	-105.04577							-376.45663	1560.88953	-126.85984	-9.90787	1524.56531	-297.94757	-346.46021	1417.93066	-214.29100	-193.90349	1310.71655	-209.41656	-241.04781	1528.27405	-395.85159	103.67743	1242.24207	-318.71414	-571.84308	1225.42188	-196.45091	68.06122	1015.73840	-217.96603	-645.33203	1095.78296	7.32035	-32.57912	941.50873	-215.65613	-313.45227	937.18719	-167.61877	-165.34500	992.13928	-452.94128	21.51377	507.44852	-211.94925	-371.28082	497.02878	-198.35568	-41.71345	89.57011	-378.70139	-376.73538	96.76556	-250.36606	
628	6.270	-142.41965	1580.29224	-107.43809							-374.90857	1562.25879	-129.61859	-7.42172	1523.87219	-299.86865	-345.46265	1419.05127	-217.39548	-192.45950	1310.31714	-211.91342	-238.45651	1528.56836	-398.11743	105.14365	1241.09949	-320.53543	-568.95978	1225.07642	-198.87404	69.14361	1016.05219	-218.55023	-641.99927	1094.92578	5.45113	-30.84467	942.12109	-216.82436	-311.92789	937.27045	-169.81480	-163.12614	992.24298	-454.92230	22.98113	507.38922	-213.53781	-370.00464	496.86682	-199.65891	-41.63891	89.46793	-378.96494	-376.64725	96.77735	-250.31339	
629	6.280										-372.49326	1563.02222	-132.62878	-4.83360	1523.39429	-301.72733	-343.32819	1420.34729	-220.04536	-190.86815	1310.36121	-213.56398	-235.68982	1528.18774	-400.08521	107.60584	1240.58228	-321.56137	-565.89642	1224.98499	-200.03940	69.66037	1016.23114	-218.64484	-638.02875	1093.61853	3.28665	-30.16407	941.28607	-218.48682	-310.36252	936.49969	-171.83539	-161.67714	991.91534	-457.43762	24.61653	507.97565	-214.02167	-368.49161	496.70123	-199.96494	-41.68523	88.47084	-380.40494	-376.58286	96.82803	-250.25012	
630	6.290										-371.08212	1563.78149	-135.86687	-2.12535	1523.12427	-303.70255	-342.51730	1420.54651	-223.07947	-188.42021	1310.56628	-215.40724	-233.20175	1528.17310	-402.51590	109.45556	1240.83826	-322.91507	-563.20581	1225.48547	-202.76492	71.14793	1016.28485	-218.54617	-633.75177	1092.72083	2.70181	-28.74241	940.82239	-219.68394	-309.52075	936.88971	-174.91412	-159.18910	991.35022	-459.00629	26.04030	507.70425	-215.59444	-366.57626	496.13226	-202.55161	-40.75163	88.78770	-379.52499	-376.39932	97.03582	-250.40800	
631	6.300										-368.73434	1564.73254	-138.79671	0.14064	1523.13062	-306.07507	-341.44067	1421.88586	-226.88617	-186.79250	1310.77100	-218.36316	-230.36778	1528.49695	-404.79321	111.54163	1239.61633	-322.86423	-560.11401	1225.97571	-204.77722	70.56448	1017.29810	-218.87697	-629.41772	1092.34778	1.47122	-27.76514	941.43506	-221.19475	-309.57474	937.94263	-178.09515	-157.53214	990.88727	-460.62830	27.44719	508.20367	-216.94295	-365.13730	496.22708	-203.38666	-40.84077	88.23737	-379.59412	-376.34198	97.05163	-250.37442	
632	6.310										-367.27231	1564.90186	-141.60623	2.71261	1522.26282	-307.70822	-339.57654	1422.36304	-229.86354	-184.81689	1310.55383	-221.46527	-227.63771	1528.15479	-408.09656	114.90561	1239.68457	-324.94199	-556.91559	1225.23633	-205.80807	70.77807	1017.43262	-219.03543	-625.87921	1091.99622	-1.69432	-27.18929	940.15240	-222.50804	-308.26981	937.03876	-178.97815	-155.78111	991.12653	-462.96277	28.45924	507.58862	-218.44595	-364.21652	496.64474	-204.81216	-40.72571	87.97179	-379.78516	-376.31445	97.55653	-250.77788	
633	6.320										-364.94687	1565.71838	-145.44319	5.22594	1522.04321	-308.97336	-338.74164	1423.06384	-232.94707	-182.61652	1310.77563	-222.71562	-224.75511	1528.06238	-410.02661	116.05200	1238.29663	-324.69727	-553.78845	1225.86633	-207.80203	70.91972	1017.72119	-218.97647	-621.66260	1091.84204	-2.60196	-26.75267	940.27502	-223.53453	-307.31006	937.66559	-182.56699	-153.49709	990.67120	-465.27383	29.37915	507.94952	-219.77983	-362.72839	496.70444	-206.25040	-40.52139	88.15910	-380.15515	-376.28320	97.63414	-250.71767	
634	6.330										-363.80115	1566.98608	-149.75969	7.94916	1521.21997	-310.32703	-337.64526	1424.40527	-236.56570	-180.47374	1311.13013	-225.42368	-222.24265	1528.56543	-412.60843	117.12244	1237.57776	-324.59192	-550.26117	1225.49463	-209.87134	70.30714	1017.50891	-221.18057	-616.83698	1091.93652	-3.46677	-25.66464	939.82269	-224.64217	-306.29285	938.11499	-186.06482	-151.86113	990.37787	-467.28650	30.23959	508.31271	-221.32030	-360.87140	497.57965	-207.99196	-40.46050	87.83459	-380.00952	-376.22623	97.70235	-250.65283	
635	6.340	-294.49112	1461.16345	-67.72923							-361.71503	1567.30371	-153.35570	10.65447	1520.98315	-312.36569				-179.12885	1311.41125	-227.63182	-219.30013	1528.55957	-415.49673	118.28561	1237.08264	-323.70215	-547.34625	1226.05444	-212.50650	69.99271	1018.02686	-221.08087	-612.30011	1092.30530	-6.22229	-24.73734	939.84503	-227.13359	-306.80185	938.45996	-188.30077	-150.09909	989.95819	-468.94580	30.19582	507.76306	-223.04552	-359.60211	497.02307	-210.66133	-40.33212	87.53986	-379.98499	-376.11710	97.91632	-250.29781	
636	6.350	-294.70358	1462.04724	-71.10247							-360.42343	1568.43640	-156.63190	12.60488	1520.26880	-313.71506				-178.14922	1310.41638	-230.51898	-216.18741	1528.20227	-417.68063	120.89857	1237.63123	-325.69943	-544.07556	1226.25830	-213.56009	69.29391	1018.79260	-220.37018	-607.19147	1092.21106	-7.68336	-23.67595	939.57440	-228.43694	-305.81226	938.38635	-191.09312	-148.25856	989.59210	-471.66925	31.29953	507.93414	-224.79718	-358.35849	496.84241	-211.63377	-40.36329	87.38732	-380.67923	-375.86810	98.25981	-249.95396	
